<?xml version="1.0" encoding="UTF-8" standalone="no" ?>
<!DOCTYPE svg PUBLIC "-//W3C//DTD SVG 1.1//EN" "http://www.w3.org/Graphics/SVG/1.1/DTD/svg11.dtd">
<svg width="342" height="151.2750528243174" viewBox="0 0 342 151.2750528243174" class="css-1j8o68f"><defs id="SvgjsDefs1905"></defs><g id="SvgjsG1906" featurekey="symbolGroupContainer" transform="matrix(1.4772954157240576,0,0,1.4772954157240576,0.03402342018635324,0)" fill="#ffffff"><g xmlns="http://www.w3.org/2000/svg"><path d="M1.4 6.1zm-.3 86zm.5-25zm73 34.4zm-6.1.4zM76.8.5zm-69.1.8zM101.9 3a.7.7 0 0 1-.1-.4V2a.4.4 0 0 0-.1-.2l-.7-1 .7.7h-.2L101 1h-.8c.1 0 .1.1 0 .1h-.8L97.7.9h-.1l.4-.2c.1-.1.1-.1 0-.2h-1.2l-.5.2h-1.7c-.6-.1-.9.2-.7.5h.1c-.2.1-.5.1-.6.3l-.3.3h-.5c.2-.3.1-.4-.4-.4l-1-.2-.8-.5-1 .3h-.1a1.2 1.2 0 0 1-1.1 0L87 .8h-.6c-.1.1-.1.1 0 .2s.1.2-.1.3h-.2l.2.2h-.8v.1a2 2 0 0 0-.1-.4L85 1h-2.8l-.5-.2a2.4 2.4 0 0 0-1.3-.2h-1.1a1.4 1.4 0 0 0-.9.1h-.3l.4.2a.2.2 0 0 1 .1.2h-.3l-.8-.2a1.4 1.4 0 0 1-.8-.3c-.1-.1-.1-.2.1-.2h-3l-.7.2a.7.7 0 0 0-.6.3h-1.9l-.5-.1-.3-.2h-.4c-.1.1.1.2.2.3s.1.1-.1.2h-.3c.1.1.1.2 0 .2h-.5c-.3 0-.5-.1-.7-.2a2.4 2.4 0 0 0-.8-.5h-.7l.4.2c.1 0 .1 0 0 .1h-.1c-.2 0-.4-.1-.4-.2h-.8v.2a1.4 1.4 0 0 1-1-.3V.4h-.1l-.5.5h-.5c-.1-.1-.1-.1.1-.2l.9-.3H63a1.1 1.1 0 0 0-1.1-.1H58v.3h.2c.5.1.5.1.3.2s-.3.3-.3.5h-1.4c-.3 0-.5-.2-.2-.3s.6-.3.5-.6V.2h-2.5l-1 .5-.3.4h-.5c0-.2 0-.4.2-.6s0-.1 0-.2h-1.2l.5.4h-.4c-.4 0-.4 0-.5.2h-.7a.4.4 0 0 0-.4-.2h-1.1v.2s0 .1-.1.2h-.4a.7.7 0 0 0-.6.2h-.7c.3-.1.3-.3 0-.4a1.3 1.3 0 0 1-.7-.3h-.3c-.2 0-.3-.1-.2-.2s-.1-.3-.3-.3h-.5c-.3.1-.3.3 0 .5s.2.1.1.2 0 .1 0 .1l.5-.2h-.6l-.8-.2c-.2-.1-.3-.2-.1-.3h.1l-.5.3h-.5c-.2 0-.3.1-.2.2h-1.1l-.2.2a1.1 1.1 0 0 1-.9.3h.1c.1-.1.1-.2-.1-.2s-1 0-.9.3.1.2 0 .3l-.2.2-.5.2H36l-1.1-.5h-.4l-.3-.6V.7h-.5c-.2 0-.2.1-.2.2a1.7 1.7 0 0 0-1.5.4l-.2.2h-2.9c.4-.1.5-.2.2-.3h-.3v.4h-.7l.7-.2a1 1 0 0 0-.8-.1l-1 .1a1.4 1.4 0 0 0-1.2-.1c-.2 0-.3 0-.3-.2s0-.2-.3-.2a2.1 2.1 0 0 0-1.1.2h-.7l-1-.1v.4c.1 0 .1 0 0 0V1h-.1c-.3-.2-.7-.3-.8-.6h-1L19.2.1h-.5l-.4.3H17l-.3.3h-.3c-.3-.2-.9-.1-1.3-.2h-.8c-.3 0-.5.2-.4.3l.2.3h.9c.2 0 .2.1.1.2h-.7l-.2-.2v.3h-.4v.1h-.5l-.6-.3a2.6 2.6 0 0 0-1.4-.5c-.2 0-.5.1-.5.2h.7l-.3.5c0 .1 0 .1.1.1H9.1v.1l-.5-.2a1.2 1.2 0 0 0-.8 0H6.7a1.2 1.2 0 0 0-.9.1 2.3 2.3 0 0 1-1.2.1c-.1-.1-.1-.2.2-.2h-.2V.8h.2c0 .1 0 .2-.1.3l.7-.1.3-.2c-.1-.2.2-.3.1-.5h-.3c-.2.3-.3.3-.7.2L3.6.3H2.5L.9.6l.2 1.2v.4c.2-.3.4.1.6-.3l.7-.7v.1l-.6.6.2.2a.5.5 0 0 1 .2.5 2.3 2.3 0 0 1-.1.7 2.5 2.5 0 0 0-.3.9V5c0 .3-.1.4-.3.5h-.2c-.1 0-.1.2-.1.4v.2l.2.2a.5.5 0 0 1 0 .4c-.1.2-.2.3-.3.3s-.3.1-.3.6a.8.8 0 0 0 0 .2 1.1 1.1 0 0 0 0 .3h.1l.2-.3h.1a.6.6 0 0 1 0 .3 1.3 1.3 0 0 1-.1.4C1 8.8.8 9 .6 9v.2c.1.1.2.5.3.5s.1.3.1.6.1.6.3.4h.3c.1.1.1.1.1.6-.1 0-.1.1-.1.3v.7h-.3a1.2 1.2 0 0 0-.4-.7H.8a1.2 1.2 0 0 0 0 .3 1.7 1.7 0 0 0 .3.7.7.7 0 0 1 0 .6 1.1 1.1 0 0 0-.1.6l.5.5c-.1.3-.2.3-.3.6a1.8 1.8 0 0 1-.3.8c-.1.1-.1.7 0 .7s.3.8.6.9.1.3 0 .4-.1.2-.2.2h-.1c-.2-.1-.2-.1-.2.4H.8c-.1 0-.1.1-.1.2v-.1l.2-.3.4.8v1.5a2 2 0 0 1-.2 1c-.1 0 0-.1 0-.2s0-.3-.1-.3l-.2.2c-.2.1-.3.5-.1.8l.3.8a.4.4 0 0 1 0 .1v.2l-.2-.2c0-.1-.1-.1-.1 0a.9.9 0 0 0 0 .3 3.2 3.2 0 0 0 .1.4c0 .1.1.3.2.2l.3-.2c.1-.1.2-.2.3-.1a.8.8 0 0 1 .2.6l-.3.4a1.7 1.7 0 0 0-.2.6H1c-.1.2 0 .5-.1.7l-.2.3a.5.5 0 0 0 0 .3l.4.6h.1c.2.1.2-.3.3-.5h.3a2 2 0 0 0 .3.8.5.5 0 0 1 0 .4L2 28h-.1a.6.6 0 0 0-.1.3 2.3 2.3 0 0 1-.1.7 2.5 2.5 0 0 0 0 .9l-.3-.6a1.1 1.1 0 0 0 0-.6c-.1-.2-.2-.4-.3-.4s-.2.2-.2.5a.4.4 0 0 0 .1.3H.9a.5.5 0 0 1 .1.4v.2H.7v.2l.3.4c.1.1.1.6-.1.6s-.4.4-.4.9 0 .4.1.3.2 0 .3.3 0 1.1.2 1.5a.4.4 0 0 1 0 .2A13.3 13.3 0 0 1 .9 36a.8.8 0 0 0 0 .4H1c0 .2-.1.3-.1.4l.2.2v.5l.2.4v.3a.8.8 0 0 1 0 .3 1 1 0 0 1-.2.6c-.1.1-.2.1-.3.3s-.1 0-.1-.2a1.7 1.7 0 0 1 .1-.8c.1-.2 0-.5-.1-.6s-.2 0-.3.2a6.9 6.9 0 0 0-.4 2c0 .1 0 .2.1.1h.5v.2a3.7 3.7 0 0 0-.4 1.1v.3c0 .5.1.8.3.9s.1.3.1.4l-.1 1a4.2 4.2 0 0 1 0 1.4v.2c-.2.4-.2.4 0 .7a.7.7 0 0 1 .1.4 1 1 0 0 0 .1.5l.2-.3.3-.9c.1-.2.1-.2.2 0s.1.5.1.7a1.6 1.6 0 0 1 0 .3.9.9 0 0 1 0 .3 1.2 1.2 0 0 0-.2.7h-.2c-.1-.3-.2-.7-.4-.9.1.5 0 .6-.1.7H.4a.6.6 0 0 0-.2.5c0 .1 0 .2.1.3h.2c.1 0 .2.2.2.4s0 .4-.1.4-.3-.1-.5.3a.7.7 0 0 0 0 .4v.2a2 2 0 0 1 .2 1.4c0 .2 0 .5-.1.8a1 1 0 0 1 .2.8v.9h.1c.4.2.5.4.6 1.3v.2l-.2-.3v.7c-.1.3-.1.3-.3.5H.3v.2l.3.3h.3c0 .3.1.2.2.3-.1.4-.1.4-.3.4H.7a.2.2 0 0 0 0 .2 2.5 2.5 0 0 1 .1 1H1a.3.3 0 0 0 .3-.1v.6c-.2.1-.3-.1-.4 0s-.1 0-.1-.4a3 3 0 0 0-.1 1 .5.5 0 0 1-.2.4.3.3 0 0 0-.1.3l.4.6-.3.3-.4.3c.1.4.2.7.3.8s.2.2.2.4h.3a.2.2 0 0 1 0 .1H.7V63a.9.9 0 0 0 0 .6 2.6 2.6 0 0 1 .3 1s.1-.1.1-.2a1.8 1.8 0 0 1 .1-1 .6.6 0 0 1 .3.4v.2c0 .1.1 0 .1-.1v-.6l.2.2c.2.2.3 0 .4-.2l.2.6a.7.7 0 0 1 .1.5 2.9 2.9 0 0 0 .1 1.3 8.4 8.4 0 0 0-.3 2h-.2v-.8H2c-.2 0-.3-.2-.4-.5v-1.3c0-.1-.1-.3-.1-.3l-.2.2a2.6 2.6 0 0 0 0 .3v.6a.3.3 0 0 1 0-.1H.9a3.4 3.4 0 0 0 .4 1.3.4.4 0 0 1 0 .4c-.1.1-.2.3-.4.1a.4.4 0 0 0-.6-.1v.7c0 .2 0 .1.1.2l.2.2a1 1 0 0 0 .3.6.9.9 0 0 1 .1.7l-.2.5L.4 72a.5.5 0 0 0 .1.4h.1c.2 0 .2 0 .2.4s.1.6.1.9l-.3.3a1.1 1.1 0 0 0-.3.8v.5c0 .2 0 .4.2.3s.2 0 .3.2l.2.5v.6h.2a2.6 2.6 0 0 0 0-.8c0-.2.1-.3.1-.3h.1c.1 0 .1.2 0 .4v.4c0 .2.1.4.1.3l.4-.3a5.2 5.2 0 0 1 0-1.6v-1a.6.6 0 0 1 0-.3h.2c.1 0 .1.1.1.3v.9a4.3 4.3 0 0 1 0 1.1.3.3 0 0 0 .1.3h.1v1.5a.9.9 0 0 1-.2.6.5.5 0 0 0-.1.4v.4a.7.7 0 0 1-.1.6l-.3-.4-.3.6v.2a2.7 2.7 0 0 0 0 1.1c.1.4.2.6.4.4l.2-.3h.1a1.6 1.6 0 0 0-.1.4 7.9 7.9 0 0 1 0 1.8c0 .2-.1.5-.3.5h-.1v.2a1.6 1.6 0 0 1 .2 1.1c0 .1-.1.2-.1.3l.3.9h.2a.4.4 0 0 1 .1.3v.2a.8.8 0 0 0-.2.6 13.1 13.1 0 0 1-.1 1.8l-.2.3a4.8 4.8 0 0 0-.4 2.8v.2c0 .1-.1 0-.2-.2V92c0 .2 0 .5-.1.7l-.2.9.2 1a6 6 0 0 0 .1 1.1 1.1 1.1 0 0 1 0 .4c-.1.3-.1.5-.2.8a5.9 5.9 0 0 0 0 .8h.2v.3a3.4 3.4 0 0 0 .2 1.1 5.2 5.2 0 0 0 .1-1 1.3 1.3 0 0 1 .1-.4 3.3 3.3 0 0 0 .4-1h.1a6.8 6.8 0 0 0 .2 1.6 10 10 0 0 1 0 1.8h.1l1.1.3H4l.6-.2h-.2c.2-.1.2 0 .2 0h.3c.4.2.4.2.7 0l.4-.2.8.3h1c-.3.2.1.3.5.3 0-.2 0-.3.3-.5a1 1 0 0 0 .8.1h1c.6.2 1.5.1 1.9.4h1l.4-.2a2 2 0 0 1 1.4.1l.4.2h.7c.6-.1.7-.1 1 .1h3.1v-.1s0-.2.2-.2h.4l.4.2h.2a1.5 1.5 0 0 0 .9.2H25c.2.2.3.1.6 0h.5a.4.4 0 0 0 .5 0 1.3 1.3 0 0 1 1-.1h.3l.3-.2h.4c.3 0 .5.1.5.2s.1.2.4.2.6.1.8.1h1.3a6.1 6.1 0 0 1 2.5 0h.7l.2-.3a.6.6 0 0 1 .5-.2l.6-.2.4-.2a1.8 1.8 0 0 1 1.1-.2h.6a1 1 0 0 0 .8-.1 2 2 0 0 1 1.2 0c.2 0 .2.2.1.2h-.5a.8.8 0 0 0 0 .2c0 .1.2.2.4.1l1.1-.2h.6a1.9 1.9 0 0 1 1.2.2h1.1c.3.1.4.3.8.3l.9-.3h4.3c.1-.1.3-.1.5 0h.7l.2-.2h.5c1.2-.1 2.4-.1 3.6-.1h.1c.1 0 0 .1-.1.1s-.6.2-.3.4.1.2.1.3h.9l.3-.3a1.6 1.6 0 0 0 .1-.4l.4-.2h.3l-.5-.2h1.1l.3.5c.1.1 0 .2 0 .3h.1c-.1 0-.1-.1-.1-.1h-1a3.8 3.8 0 0 0 1.5 0c.2-.2.7-.3.5-.6h.2l.5-.2a.9.9 0 0 1 0-.2c0-.1.1-.2.3-.2h.7v.6h.5c-.4 0-.5.1-.5.3h1.7c.3 0 .6 0 .8.2h.1a3.4 3.4 0 0 0 2-.1h1c.2 0 .3-.1.2-.2l-.2-.3h.7c.3 0 .4.1.7.1v-.2c0-.1 0-.1.1-.1h.1a.1.1 0 0 1 0 .1l-.2.2a2.2 2.2 0 0 1 1 .1v.5h-.9c.1.2.7.2.7.4h.5l1.1.2h.3l.2-.4c-.1-.2.1-.3.4-.3l-.3-.2.2-.2h.6a.7.7 0 0 0 0-.2c0-.1 0-.1.1-.1h.3a1.5 1.5 0 0 1 .8.4l.4.2 1 .2h1.3a3.5 3.5 0 0 0 1.4.3c.3 0 .6-.1.5-.2l-.2-.6c0-.1.1-.2.4-.2s.4 0 .4.2 0 .3.4.4l.5.2a.5.5 0 0 0 .4.2h1.9l.5-.3c.2-.2.6-.1.9-.1h.7v.1c0 .1.2.2.6.1h.5c-.1-.1.1-.2.3-.3h.5c.2.1.3.2.2.3v.2h.3l.6-.2a10.5 10.5 0 0 1 2 0l1.4-.5h.9c.3 0 .4.1.2.3H91a1.7 1.7 0 0 0 .9.2c.3 0 .4.1.5.2a.6.6 0 0 0 .6 0h.1c.1-.2.5-.4 1-.3h.9c0 .2.1.2.4.3a5.6 5.6 0 0 1 1.5.2H98a.8.8 0 0 1-.7-.3h.6l.9.3c-.1 0-.1 0 0 0s0 .1 0 .1h.4l.8-.3h.5c.3 0 .4-.1.4-.2s0-.2-.2-.2h-.6c-.1 0-.1-.1 0-.2h-.7l-.6.2h-.2v-.1h.8a2.4 2.4 0 0 0-1.9-.1l-.6-.2a1.4 1.4 0 0 0-.8-.1c-.4 0-.5.1-.5.3s-.1.2-.2.2h-.5c.1-.1.1-.2-.3-.3h6.4v-1.4a.5.5 0 0 0 .1-.4h-.1V79.8a4.9 4.9 0 0 0 0-1.4V64.8h.1c0-.6.1-1.2 0-1.8a1.3 1.3 0 0 0-.2-.6v-3.7l.2-.9a3.1 3.1 0 0 0 .1-1.1 6.2 6.2 0 0 1 0-1.7 5.9 5.9 0 0 0 0-.6 1.9 1.9 0 0 0-.1-.7l-.2-.4v-2.7l.2-.6a1.8 1.8 0 0 0 .1-.7 5.9 5.9 0 0 0-.1-1.5 5.4 5.4 0 0 1-.1-1v-3.6a4.6 4.6 0 0 0 .1-1.2v-2.1l.3-1.3v-.3a1.4 1.4 0 0 1-.1-1.2l.2-.7a9.7 9.7 0 0 0 .2-1.5v-1.6a5.9 5.9 0 0 0 0-.8 4.4 4.4 0 0 1 .1-1.4 1 1 0 0 0 0-.3v-.2h-.1c-.1.1-.1.4-.3.4a13.8 13.8 0 0 1 .1-2 2.7 2.7 0 0 0 0-.5h-.5v-2.1a.6.6 0 0 0 0-.3v-3.5a3.1 3.1 0 0 0 .5-1.3 1.8 1.8 0 0 0-.3-.6l-.2-.3V20h.1c.1.1.2.2.3.1a.8.8 0 0 0 .2-.7 4.4 4.4 0 0 1 .2-1.9 1.6 1.6 0 0 0 0-.4h-.1a.4.4 0 0 1-.1-.4c0-.2.1-.1.2-.1h.1c0-.4 0-.8-.1-1.2s-.1-.5-.1-.7a4.2 4.2 0 0 1 0-.6v-1.3l-.3-1a2.2 2.2 0 0 1 0-1.2l.3-1.4c.1-.5.1-1.1.2-1.7a.5.5 0 0 0 0-.2 1.7 1.7 0 0 0 0-.3l-.3-1v.9c0-.3.1-.5.1-.8v-.3a2.3 2.3 0 0 1 .2-1.1 4.4 4.4 0 0 0 .2-1.4zM88 1.6zM1.6 20.7c0-.1.1-.1.1 0zm.1 1.2a.2.2 0 0 1 0-.2h.1v.2zM1.3 40v.4h.1a.4.4 0 0 1 0 .1c-.1 0-.1-.1-.1-.2V40zm0 5.1a1.3 1.3 0 0 1 0-.3v-.2.5zm.1-2c-.1.5-.2.6-.4.2a1 1 0 0 1 0-.3l.5-.3a1.3 1.3 0 0 1-.1.4zM.7 75zm.3-3.5a.6.6 0 0 1 0-.2c0-.2.1-.2.2-.2v.2c0 .2-.1.4-.2.2zm.7-.8c0 .1-.1.2-.2.1l-.2-.4a.7.7 0 0 1 0-.3V70h.4zm.6 2.3h-.1v-.2c.2.1.2.2.2.3zm0-1.2c0-.1 0-.2.1-.1.1.2 0 .3 0 .2zm-1 25.4zm.9-2h-.1v-.3a1.2 1.2 0 0 1 0-.3l.2.2a.6.6 0 0 1-.1.4zm94.7 6.1h.4l-.4-.2v.2zm-.2.5v.1h-.4v-.1zM94.6 1.6s-.1 0 0 0zm-12.8-.4zm-.8.2h-.5c-.1.2.2.1.5.1zM61.1.5zm-6.4.6zm-3.5.6h1.7a.1.1 0 0 1 .1.2h-1.9v-.2zm-10.4 0zm-17.3-.2h.2a1.7 1.7 0 0 1 1 .3h-1.2a.3.3 0 0 1 0-.3zm-1.2.2zM20 1.1h.3c.1 0 .2.1.1.2H20l.1-.1zm-1 .2zM17.9.8h.1c-.1.1-.2 0-.1 0zm.1.4l-1 .2h-.1a1.7 1.7 0 0 1 1.1-.3zM14.6.9l1.2.3s.1.1 0 .1h-.5zm6 .9zM3.4 1.7zM3 .6zm-.6 11zm-1 38.5a.6.6 0 0 1 0 .1h-.1c.1-.3.1-.3.1-.1zm-.4-.8zm-.1.8a.3.3 0 0 1 0 .1c.1-.2.1-.3.1-.1zm.5 7.4c-.1.3-.2.2-.3-.2a.6.6 0 0 0-.1-.4c.2-.2.2-.2.3.3l.2-.5h.1a.6.6 0 0 1 0 .3 1.3 1.3 0 0 1-.1.5zm.3-3.3c-.2 0-.2.3-.3.6h-.1a4.9 4.9 0 0 0-.2-1.9l-.2-.3H.7c-.1.1-.1 0-.1-.3v-.4c.2-.1.4-.1.5-.3s.3 0 .5.1.1.1.1.5v.2c-.1-.2-.2-.3-.2-.2a.7.7 0 0 0 0 .4l.3 1.2c0 .1.1.1.2 0-.1.1-.1.4-.2.4zm-.1-4.1V49l.4-.5v1c0 .3-.1.6-.3.6zm.2-3zm.2-8.9zm.1 7.9zm-.3-9.3c-.1.2-.2-.1-.2-.3a1.3 1.3 0 0 1 0-.6.6.6 0 0 0 0-.4V35a2.5 2.5 0 0 1 0-1.2h.1v.2c0 .2.1.3.2.3H2a2.4 2.4 0 0 0 0 1.3l.3.9c-.2-.1-.3.1-.5.3zm.4-17.3l-.2.2c-.1 0-.2-.3-.2-.5s.1-.2.2-.2l.2.2a.6.6 0 0 1 .1.4zm.1-11.2a.8.8 0 0 1-.1-.5v-.2a1.1 1.1 0 0 1 .1.7zm.1 5.7zm0 43.7a.2.2 0 0 1 0-.2v.3zm-.1 27.4v-.2a.5.5 0 0 1 0-.1h.2v.5h-.2zm.1 5v-.2a.5.5 0 0 1 .1-.4v.6zM13 100.8zm6.6-.4zm3.8.7h-.6c-.1 0-.2-.1-.1-.2h.7zm1.2-.2zm9 .3zm6.6-.8h-.3v-.1h.3zm2.3.5h-1v-.2h.8c.1.1.2.2.1.2zm3.2-.2c-.2.3-.7.3-1.2.3h1.2zm3.7.4h-2.9c-.1-.1 0-.2.3-.3h2.5zm1.5-.2l-.3.3h-.4l.2-.6h.5c-.1.1 0 .2-.1.3zm1.3 0zm1.7-.3zm1.5.3H55s-.1-.1 0-.1h.3zm3.1-.4h-.3c0-.1 0-.1.1-.1h.2zm4.5.8zm6-.9h-.3c-.1-.1 0-.1.2-.2h.1zm1.4 1zm4.3-.6c-.1-.2 0-.3.3-.4l-.8.2v.3h-.3c-.2-.3.1-.4.7-.4h.5v.5zm1.8-.2h-.2v-.1h.2zm6 .4zm1.2-.4c-.1 0-.1-.1-.1-.1h.1zm3.8.1c-.1 0-.2 0-.1-.1h.1zm1.3.2zm5.5.2zm-32.7-.8a.8.8 0 0 1 .6 0h-.6c-.3-.1-.4-.1-.3-.2h.4v.2zM101 4.7v-.6h.1c.1 0 .2.2.2.4v.3zm.3 12.8a1.2 1.2 0 0 1 0 .7h-.1c-.2-.1-.2-.4-.2-.8v-.2zM1.7 85.7zM.9 66.6zm1.4 10.5zM2 34.3z"></path><path d="M.3 66.8a.4.4 0 0 1 .5-.2h.1l.2-.8-.5-.9H.4L0 65a.5.5 0 0 0 0 .3c0 .2.1.4.2.4h.3c-.1.3-.1.8-.3.8v.2c-.1.1 0 .2.1.1zm.6-.2zm37.2 35.3zM8.7 1c.3 0 .4-.1.4-.3s0-.2-.3-.2a1 1 0 0 1-.8.1h-.4c-.2.1-.2.3.1.4s.1.1 0 .2a.7.7 0 0 1 .5-.2zM3.5 101.5c.5.1.5.1 1.6 0l-.7-.2zm-2-96.9h.1a4.7 4.7 0 0 1 0-.6 1.3 1.3 0 0 0-.2-.9 6.9 6.9 0 0 1 .1 1.5zm52.8 97.6c-.1 0-.1.2.1.2h-.1zm24.7-.1h-.2l-.2.3h.2l.4-.2zm-77.5-12zm.2-1c0-.2-.1-.2-.2-.2s-.1.1-.1.2v.7a1.5 1.5 0 0 0 .3-.7zm.1-1.4zm-.3-.6c.1.2.1.7.3.6l-.2-.6h-.1zm86.7 14.7h-.4c-.1 0-.2.1-.1.2h.7c.1 0 0-.1-.2-.2zm-34.5-.3c-.2 0-.3.1-.2.1l.4.2h.1c.1 0 .2-.2.2-.2h-.5zM35.8.7c.1-.1.2-.1 0-.2zM8.4 0h-.1c-.1.2.2.3.6.4L8.6 0zM49 .8c.1-.1.1-.2 0-.3h-.5c0 .2.3.2.5.3zm-7.3 101zm-40-19.3v-.2c-.1 0-.1.2-.1.3s.1 0 .1-.1zM47.6.7c.1.1.1 0 0 0zM38 .7zM10.3.7zm29.6 100.6zm-1.1.1zm0 0a1.1 1.1 0 0 0 .8 0h-.8zm63.9-40.8c-.1-.1-.1-.1-.1 0a.4.4 0 0 0 .1.3h.1zm-42.9 41.5h.2c.2 0 .3 0 .3-.2h-.2zM.4 59.6v-.2H.3a.5.5 0 0 0 0 .2c0 .3.1.2.1 0zM101.8 5.8c0 .1.1.1.1-.1h-.1a.6.6 0 0 0 0 .1zM68.8.7h-.2c-.1 0-.2.1 0 .2zM1.2 80.3zM.9 92.2H1V92H.9c0 .1-.1.2 0 .2zm37.8 9.7zm-.6 0zm63.1-56.6c0 .1.1.1.1-.1h-.1a.3.3 0 0 0 0 .1zM10.7 1.4zm-8.8 66H2c0 .1 0 0-.1 0zm99.7-40.8v-.1.1zM1.9 88.1a.3.3 0 0 0 0-.1c-.1.1-.1.1 0 .1zM85.2 1zm-50 0zM1.7 85.9c0-.1 0 0 0 0zM30.3.8zm-9.1 100.3c-.1 0-.1.1.1.1h-.1zm.1 0zM1.4 99.5v-.2a.2.2 0 0 0 0 .2zm.1-.2zM7.5.6h.1-.1zm.2 0zM1.3 6.3zM50.1.4zm21.3 101.2v.3c.3-.2.3-.2 0-.3zm0 .2zm0-.2zM.7 23.9zM68.1 102zM.7 19.3zm62 82.7c-.1.1 0 .1.1.1h-.1zM.4 35.8h.1c0-.1-.1-.2-.1 0zm.1.1zm99-34.3zm.3-.1zM2.3 76.9v.1zm99.3-55.7zM30.9.8v.1-.1zm-2.8 0l-.1.1.1-.1zM8.3 101.2h.1s.1 0 0-.1h-.1zm7.8 0zM70.9.7h-.1.1zM22.7.7h-.1.1zM1.4 90.4v-.3.3zm.1-.3zm-.1.3zm0-87.3zm0 0zm37.4 98.3zm-.2.1zm-.3 0v-.2H38c-.2.2-.6.1-1 .1h-.2c.1.2 0 .4.2.5h1v-.2l.2-.2zM52.9.5zm.2-.1H53c.1.1.2.1.1 0zM38.6.5h.1-.1zm3.1 101.2zm0 0l-.2-.2v.2zm-.2-.2zm-.2.2zm-.1.1h.2c-.2-.1-.3-.1-.2 0zm27.3.1zM.7 24.6zm0 .3a.4.4 0 0 0 0-.3v.3zm0 10.2V35v.1zm.1 20.1zM35 102zm27.1-.1c.1 0 .1 0 0 0zM.6 36H.5s0 .2.1 0z"></path></g></g><g id="SvgjsG1907" featurekey="symbolFeature-0" transform="matrix(27.28433392602688,0,0,27.28433392602688,7.767273923654514,7.47286955079883)" fill="#62d2a2"><title xmlns="http://www.w3.org/2000/svg">abstract</title><path xmlns="http://www.w3.org/2000/svg" d="M3.93809,2.38489c.00887.11375-.02321.14445-.11653.12941a.58238.58238,0,0,1-.06905.0892.08164.08164,0,0,1-.114-.09591c.01257-.051.05209-.06833.13009-.05481A.32469.32469,0,0,1,3.779,2.41.3666.3666,0,0,1,3.80043,2.369l-.0021-.0083c-.03248-.0303-.05483-.06361-.03216-.10976a.09213.09213,0,0,1,.10646-.04516c.06429.00693.12848.0147.19264.02276a.15217.15217,0,0,1,.03566.00932.0825.0825,0,0,1-.03648.16065c-.02145-.0017-.04265-.00626-.06406-.00865C3.98085,2.38771,3.96117,2.38669,3.93809,2.38489Z"></path><path xmlns="http://www.w3.org/2000/svg" d="M3.04423,2.27006c-.06965-.00112-.11165-.04592-.09545-.09378.02853-.08429.0664-.16545.10118-.24757a.04495.04495,0,0,1,.01919-.01948A.04051.04051,0,0,0,3.092,1.85717a.07907.07907,0,0,1,.05582-.09383.08615.08615,0,0,1,.09936.03978.08292.08292,0,0,1-.02989.10943.04213.04213,0,0,0-.023.0524.06716.06716,0,0,1-.0035.03628c-.02731.07038-.05227.14206-.08575.20946C3.0912,2.2386,3.05819,2.257,3.04423,2.27006Z"></path><path xmlns="http://www.w3.org/2000/svg" d="M3.74107,1.864a.09148.09148,0,0,1-.09015-.05775.06826.06826,0,0,0-.04034-.03206.08584.08584,0,0,1-.07514-.08566.081.081,0,0,1,.06938-.08c.044-.00765.07421.01356.09582.06028a.05094.05094,0,0,0,.03839.02408c.05682-.00052.11357-.00627.17041-.00878a.082.082,0,0,1,.09384.069.08006.08006,0,0,1-.07335.09418C3.86624,1.85671,3.80146,1.85893,3.74107,1.864Z"></path><path xmlns="http://www.w3.org/2000/svg" d="M3.41469,3.33325c-.03114-.03283-.06069-.0601-.08555-.09113a.089.089,0,0,1,.00377-.1252c.03482-.03068.08061-.02278.12319.01659a1.02225,1.02225,0,0,0,.10723.08706.086.086,0,0,1,.01215.15162.06592.06592,0,0,0-.01858.03451.08214.08214,0,0,1-.06455.07547.07871.07871,0,0,1-.08619-.03077.08075.08075,0,0,1,.00092-.10277Z"></path><path xmlns="http://www.w3.org/2000/svg" d="M2.14336.82741a.08781.08781,0,0,1,.081.07561c.01084.048.01677.09716.029.14475a.1012.1012,0,0,0,.03246.05055A.0843.0843,0,0,1,2.32,1.19967a.07777.07777,0,0,1-.08294.05394.081.081,0,0,1-.07936-.07093A.0568.0568,0,0,0,2.142,1.15162c-.08809-.06876-.07933-.16825-.07941-.262C2.06251.84826,2.10115.83,2.14336.82741Z"></path><path xmlns="http://www.w3.org/2000/svg" d="M3.21989,3.75632c-.019.02161-.03454.05432-.05807.06183a.1266.1266,0,0,1-.0884-.01331.1534.1534,0,0,1-.05125-.06344,1.69417,1.69417,0,0,1-.08344-.169.07926.07926,0,0,1,.03761-.10616.08113.08113,0,0,1,.10979.03779c.01151.018.01956.03825.03008.057.02328.04143.04769.08223.07052.1239C3.19756,3.7046,3.20584,3.72575,3.21989,3.75632Z"></path><path xmlns="http://www.w3.org/2000/svg" d="M3.87673,2.80355c-.00134.072-.0524.11373-.10723.096a1.22856,1.22856,0,0,1-.19013-.08134.07819.07819,0,0,1-.03683-.10654.08365.08365,0,0,1,.114-.03915,1.48244,1.48244,0,0,1,.16874.07405A.20206.20206,0,0,1,3.87673,2.80355Z"></path><path xmlns="http://www.w3.org/2000/svg" d="M2.32244,3.564c.00729-.04164.012-.08458.02283-.12589a.07338.07338,0,0,1,.0849-.05561.07164.07164,0,0,1,.0714.07177c.00226.07043.00171.14119-.00269.2115a.08.08,0,0,1-.15415.01757A.81561.81561,0,0,1,2.32244,3.564Z"></path><path xmlns="http://www.w3.org/2000/svg" d="M1.93229,4.06809c.00648-.03109.01706-.08542.02955-.13929A.14866.14866,0,0,1,1.98116,3.887a.08079.08079,0,0,1,.099-.03782.07974.07974,0,0,1,.05069.09315q-.01536.08864-.03411.17669a.08377.08377,0,0,1-.09625.07272C1.95546,4.18467,1.92927,4.14685,1.93229,4.06809Z"></path><path xmlns="http://www.w3.org/2000/svg" d="M1.46327,2.74936a.29089.29089,0,0,1-.03963.054c-.04146.03851-.08647.07319-.12972.10979a.07834.07834,0,0,1-.09438.01112.07282.07282,0,0,1-.0393-.08581.14731.14731,0,0,1,.04-.07031.98636.98636,0,0,1,.14141-.10285C1.39828,2.6319,1.4647,2.672,1.46327,2.74936Z"></path><path xmlns="http://www.w3.org/2000/svg" d="M1.65772,1.18092c-.00174.07453-.06975.11625-.12022.08312a.35307.35307,0,0,1-.14063-.167A.08428.08428,0,0,1,1.43373.98916a.0876.0876,0,0,1,.10963.03195c.02727.03519.05688.06862.08313.10453A.43149.43149,0,0,1,1.65772,1.18092Z"></path><path xmlns="http://www.w3.org/2000/svg" d="M3.29272,2.60068c-.05924.059-.10941.067-.14735.02558a.08346.08346,0,0,1,.00494-.11976c.04272-.03769.09216-.02523.14323.0361.0629-.0578.11058-.065.14855-.02249a.086.086,0,0,1-.00837.12013C3.39131,2.67622,3.34194,2.663,3.29272,2.60068Z"></path><path xmlns="http://www.w3.org/2000/svg" d="M1.09668,1.42182c.03248.00725.07982.01513.12546.02872a.08257.08257,0,1,1-.03863.16055c-.04265-.00611-.08519-.014-.12708-.024a.08551.08551,0,0,1-.07383-.09618C.989,1.44673,1.02886,1.41875,1.09668,1.42182Z"></path><path xmlns="http://www.w3.org/2000/svg" d="M2.61472,1.59283c-.01166.07891-.04288.11384-.09631.10776a.08639.08639,0,0,1-.07507-.09441c.00839-.05735.04868-.07784.12208-.06845a.70463.70463,0,0,1,.067-.09494c.01026-.0106.03835-.00967.05653-.00572a.08152.08152,0,0,1,.05987.09951C2.7366,1.58883,2.69863,1.60476,2.61472,1.59283Z"></path><path xmlns="http://www.w3.org/2000/svg" d="M2.97015,1.61331c-.068-.04553-.08522-.09539-.05058-.14091a.0856.0856,0,0,1,.12333-.01163.088.088,0,0,1-.01242.13653.4952.4952,0,0,1,.05665.09311.08284.08284,0,0,1-.01953.06258.07922.07922,0,0,1-.11531.00645C2.90884,1.71961,2.91387,1.67175,2.97015,1.61331Z"></path><path xmlns="http://www.w3.org/2000/svg" d="M2.91718,1.24228c.08313.01114.11474.03659.11294.09094a.0799.0799,0,0,1-.07426.07945c-.05317.0051-.082-.02265-.09642-.09265-.09129-.01868-.1183-.04069-.11568-.09425a.08144.08144,0,0,1,.07171-.07729C2.86755,1.14227,2.89454,1.16716,2.91718,1.24228Z"></path><path xmlns="http://www.w3.org/2000/svg" d="M1.6833,3.42259a1.59342,1.59342,0,0,1,.07536-.16021.07264.07264,0,0,1,.09845-.02505.08072.08072,0,0,1,.04111.10178c-.01275.04237-.02639.08447-.04022.1265a.08255.08255,0,0,1-.09364.05762A.08607.08607,0,0,1,1.6952,3.428Z"></path><path xmlns="http://www.w3.org/2000/svg" d="M2.87425,2.43477a.18164.18164,0,0,1-.04058.0528,1.00022,1.00022,0,0,1-.13721.07587A.07721.07721,0,0,1,2.624,2.42708a1.12393,1.12393,0,0,1,.14827-.075C2.82263,2.33172,2.87293,2.368,2.87425,2.43477Z"></path><path xmlns="http://www.w3.org/2000/svg" d="M3.37115,2.234a.205.205,0,0,0,.0313-.02086.08714.08714,0,0,1,.11-.01345.07994.07994,0,0,1,.03144.098.08294.08294,0,0,1-.09164.05479.07175.07175,0,0,0-.046.0166.089.089,0,0,1-.10944.01891.08056.08056,0,0,1-.03809-.09554C3.26937,2.2517,3.30622,2.23017,3.37115,2.234Z"></path><path xmlns="http://www.w3.org/2000/svg" d="M3.5805,1.33689c-.06282-.00074-.10935-.0632-.07877-.10968a.56527.56527,0,0,1,.13-.13115.06158.06158,0,0,1,.0888.02249.10522.10522,0,0,1,.01015.08757.785.785,0,0,1-.118.12042C3.60371,1.33484,3.58713,1.33493,3.5805,1.33689Z"></path><path xmlns="http://www.w3.org/2000/svg" d="M1.06915,2.14389a.10312.10312,0,0,1,.08371.06891.07073.07073,0,0,1-.03836.08947.81049.81049,0,0,1-.13857.04868.07989.07989,0,0,1-.06456-.13889A1.27427,1.27427,0,0,1,1.06915,2.14389Z"></path><path xmlns="http://www.w3.org/2000/svg" d="M.7049,2.684c.01313-.05953.104-.1628.15611-.16419a.09667.09667,0,0,1,.07392.03117.09572.09572,0,0,1,.00415.08364.39185.39185,0,0,1-.095.11047.09586.09586,0,0,1-.08374.00784C.73637,2.74178.72294,2.70789.7049,2.684Z"></path><path xmlns="http://www.w3.org/2000/svg" d="M2.75019,3.06664a.09475.09475,0,0,1-.08-.05888.084.084,0,0,1,.01925-.09353.57079.57079,0,0,1,.04383-.05629c.022-.0185.0499-.04347.07411-.04228a.102.102,0,0,1,.07384.04737.1169.1169,0,0,1-.01023.08451.25469.25469,0,0,1-.056.07526A.39952.39952,0,0,1,2.75019,3.06664Z"></path><path xmlns="http://www.w3.org/2000/svg" d="M3.82264,3.67594c.00061.0666-.06.11309-.10894.08576a.41084.41084,0,0,1-.11434-.10234.06935.06935,0,0,1,.01826-.09892.07428.07428,0,0,1,.10147-.00205.63084.63084,0,0,1,.07877.07078A.17564.17564,0,0,1,3.82264,3.67594Z"></path><path xmlns="http://www.w3.org/2000/svg" d="M1.1285,3.1105a.0795.0795,0,0,1,.06445.12641.38071.38071,0,0,1-.09513.09186A.07982.07982,0,0,1,.9774,3.258.203.203,0,0,1,1.1285,3.1105Z"></path><path xmlns="http://www.w3.org/2000/svg" d="M2.80718.99639A.84253.84253,0,0,1,2.85162.87716.07955.07955,0,0,1,2.95527.84253a.08249.08249,0,0,1,.04423.10415c-.00758.02813-.015.05637-.02457.08387a.08212.08212,0,0,1-.09679.05781A.09974.09974,0,0,1,2.80718.99639Z"></path><path xmlns="http://www.w3.org/2000/svg" d="M.92686,1.75567a.28172.28172,0,0,1,.0434.00514.07715.07715,0,0,1,.06583.07784A.072.072,0,0,1,.97473,1.919a.29155.29155,0,0,1-.11317-.00557A.07709.07709,0,0,1,.80588,1.816C.81711,1.77088.8534,1.7506.92686,1.75567Z"></path><path xmlns="http://www.w3.org/2000/svg" d="M3.035,4.17278a.26641.26641,0,0,1-.0598.0649.07058.07058,0,0,1-.09077-.02294.14725.14725,0,0,1-.03031-.14233.116.116,0,0,1,.06731-.05809.066.066,0,0,1,.08146.04386A1.02355,1.02355,0,0,1,3.035,4.17278Z"></path><path xmlns="http://www.w3.org/2000/svg" d="M2.22989,2.38324c-.02374.02683-.03917.05869-.06288.06706a.10164.10164,0,0,1-.08368-.01255.23948.23948,0,0,1-.0621-.08939.077.077,0,0,1,.03644-.099.07554.07554,0,0,1,.10025.01835A1.20191,1.20191,0,0,1,2.22989,2.38324Z"></path><path xmlns="http://www.w3.org/2000/svg" d="M1.50688,1.63349c.06894.00067.12046.04235.11864.096a.0816.0816,0,0,1-.08543.07828c-.07366-.00046-.12226-.03627-.12271-.09043A.08256.08256,0,0,1,1.50688,1.63349Z"></path><path xmlns="http://www.w3.org/2000/svg" d="M4.01443,3.01581c.06865.00387.12271.05151.11846.10438a.08345.08345,0,0,1-.09335.075.11444.11444,0,0,1-.1136-.10025A.08016.08016,0,0,1,4.01443,3.01581Z"></path><path xmlns="http://www.w3.org/2000/svg" d="M2.454,2.29981a.11766.11766,0,0,1,.11863-.09945.08168.08168,0,0,1,.07879.08486.1254.1254,0,0,1-.1175.10293A.08252.08252,0,0,1,2.454,2.29981Z"></path><circle xmlns="http://www.w3.org/2000/svg" cx="2.43424" cy="2.78905" r="0.0831" transform="translate(-0.44014 5.1219) rotate(-87.94878)"></circle><circle xmlns="http://www.w3.org/2000/svg" cx="2.21377" cy="2.54924" r="0.08353" transform="translate(-0.00983 0.00857) rotate(-0.22141)"></circle><circle xmlns="http://www.w3.org/2000/svg" cx="2.16043" cy="1.86976" r="0.08378" transform="translate(0.25739 4.00092) rotate(-89.11123)"></circle><circle xmlns="http://www.w3.org/2000/svg" cx="2.28189" cy="1.44231" r="0.08379" transform="translate(-0.00269 0.00427) rotate(-0.10711)"></circle><circle xmlns="http://www.w3.org/2000/svg" cx="1.43728" cy="3.18269" r="0.08377" transform="translate(-1.76775 4.56944) rotate(-89.09359)"></circle><circle xmlns="http://www.w3.org/2000/svg" cx="2.37346" cy="1.82991" r="0.08326" transform="translate(0.47827 4.15157) rotate(-88.4068)"></circle><circle xmlns="http://www.w3.org/2000/svg" cx="3.39872" cy="1.33675" r="0.08394" transform="translate(-0.04802 0.12919) rotate(-2.1624)"></circle><circle xmlns="http://www.w3.org/2000/svg" cx="3.38579" cy="1.60248" r="0.08348" transform="translate(1.53811 4.86094) rotate(-85.77303)"></circle><circle xmlns="http://www.w3.org/2000/svg" cx="1.96406" cy="1.49335" r="0.08323" transform="translate(0.38244 3.38705) rotate(-87.3785)"></circle><circle xmlns="http://www.w3.org/2000/svg" cx="2.69335" cy="3.36185" r="0.08336" transform="translate(-0.74981 5.95045) rotate(-88.23624)"></circle><circle xmlns="http://www.w3.org/2000/svg" cx="4.20491" cy="1.96277" r="0.08358" transform="translate(2.07557 6.08584) rotate(-87.70837)"></circle><circle xmlns="http://www.w3.org/2000/svg" cx="3.09992" cy="3.18195" r="0.08358" transform="translate(-0.04731 0.04678) rotate(-0.85815)"></circle><circle xmlns="http://www.w3.org/2000/svg" cx="2.18069" cy="3.44856" r="0.0837"></circle><circle xmlns="http://www.w3.org/2000/svg" cx="1.87418" cy="1.99094" r="0.08345" transform="translate(-0.06653 0.0648) rotate(-1.94617)"></circle><circle xmlns="http://www.w3.org/2000/svg" cx="1.42798" cy="2.23004" r="0.08366" transform="translate(-0.02973 0.01932) rotate(-0.76711)"></circle><circle xmlns="http://www.w3.org/2000/svg" cx="3.37245" cy="2.08312" r="0.08337" transform="matrix(0.99999, -0.00499, 0.00499, 0.99999, -0.01035, 0.01685)"></circle><circle xmlns="http://www.w3.org/2000/svg" cx="2.9004" cy="2.70931" r="0.08356" transform="translate(-0.03056 0.0331) rotate(-0.65034)"></circle><circle xmlns="http://www.w3.org/2000/svg" cx="3.16656" cy="1.2441" r="0.08337" transform="translate(1.9074 4.40471) rotate(-89.72735)"></circle><circle xmlns="http://www.w3.org/2000/svg" cx="1.88146" cy="2.86206" r="0.08311" transform="translate(-1.00051 4.71289) rotate(-89.38877)"></circle><circle xmlns="http://www.w3.org/2000/svg" cx="3.67244" cy="2.02399" r="0.08335" transform="translate(1.57391 5.65435) rotate(-88.83042)"></circle><circle xmlns="http://www.w3.org/2000/svg" cx="2.58024" cy="3.0883" r="0.08351" transform="translate(-0.52427 5.64901) rotate(-89.63866)"></circle><circle xmlns="http://www.w3.org/2000/svg" cx="2.61449" cy="1.26969" r="0.0833" transform="translate(1.23161 3.82611) rotate(-87.49184)"></circle><circle xmlns="http://www.w3.org/2000/svg" cx="1.40163" cy="3.66067" r="0.08311" transform="translate(-2.2726 5.02638) rotate(-89.43882)"></circle><circle xmlns="http://www.w3.org/2000/svg" cx="2.64013" cy="3.9875" r="0.08373" transform="translate(-1.38535 6.56935) rotate(-89.16655)"></circle><circle xmlns="http://www.w3.org/2000/svg" cx="2.51387" cy="0.83732" r="0.08328" transform="translate(-0.01676 0.05211) rotate(-1.18361)"></circle><circle xmlns="http://www.w3.org/2000/svg" cx="2.80887" cy="2.08913" r="0.08384" transform="translate(-0.04589 0.06315) rotate(-1.27774)"></circle><circle xmlns="http://www.w3.org/2000/svg" cx="1.75508" cy="2.5555" r="0.0838" transform="translate(-0.00374 0.00257) rotate(-0.08385)"></circle><circle xmlns="http://www.w3.org/2000/svg" cx="2.34079" cy="2.13628" r="0.08352" transform="translate(0.15891 4.43462) rotate(-88.8736)"></circle><circle xmlns="http://www.w3.org/2000/svg" cx="1.8089" cy="2.20983" r="0.08331" transform="translate(-0.42527 3.98857) rotate(-89.22232)"></circle><circle xmlns="http://www.w3.org/2000/svg" cx="3.33272" cy="0.89709" r="0.08323" transform="translate(2.37872 4.21397) rotate(-89.0193)"></circle><circle xmlns="http://www.w3.org/2000/svg" cx="3.43811" cy="1.90946" r="0.0834" transform="translate(-0.03585 0.06603) rotate(-1.09461)"></circle><circle xmlns="http://www.w3.org/2000/svg" cx="4.21193" cy="2.66197" r="0.08344" transform="translate(1.48225 6.83034) rotate(-89.07419)"></circle><circle xmlns="http://www.w3.org/2000/svg" cx="1.95425" cy="1.69004" r="0.08311" transform="translate(0.26107 3.64157) rotate(-89.90803)"></circle><circle xmlns="http://www.w3.org/2000/svg" cx="3.35292" cy="2.88841" r="0.08351" transform="translate(0.45318 6.23154) rotate(-89.80611)"></circle><circle xmlns="http://www.w3.org/2000/svg" cx="3.09987" cy="2.82753" r="0.08302" transform="translate(0.25425 5.91081) rotate(-89.6649)"></circle><circle xmlns="http://www.w3.org/2000/svg" cx="3.84553" cy="1.45679" r="0.08325" transform="translate(-0.02203 0.05954) rotate(-0.88451)"></circle><circle xmlns="http://www.w3.org/2000/svg" cx="3.24016" cy="3.0349" r="0.08299" transform="translate(-0.02772 0.02987) rotate(-0.52594)"></circle><circle xmlns="http://www.w3.org/2000/svg" cx="3.67229" cy="3.0416" r="0.08342" transform="translate(0.604 6.69162) rotate(-89.58245)"></circle><circle xmlns="http://www.w3.org/2000/svg" cx="2.78682" cy="1.82376" r="0.08296" transform="translate(-0.02252 0.03489) rotate(-0.71445)"></circle><circle xmlns="http://www.w3.org/2000/svg" cx="2.50045" cy="1.96329" r="0.08304" transform="translate(-0.03878 0.05042) rotate(-1.14635)"></circle><circle xmlns="http://www.w3.org/2000/svg" cx="2.25008" cy="3.01536" r="0.08326"></circle></g><g id="SvgjsG1908" featurekey="nameFeature-0" transform="matrix(2.3599230454350724,0,0,2.3599230454350724,167.2801553157536,-13.697305557600217)" fill="#ffffff"><path d="M14 28.16 c0 1.8 -0.04 5.36 -0.08 5.36 l0 5.44 c0 0.24 -0.04 0.64 0.08 0.88 c0.12 0.28 0.48 0.2 0.72 0.16 c1.16 -0.12 2.32 0.04 3.48 0 c1.28 -0.04 0.88 -2 0.84 -2.8 c-0.16 -1.76 0.04 -15.16 0.04 -19.96 c0 -2.16 -0.08 -6.6 -0.2 -6.8 c-0.2 -0.36 -0.72 -0.44 -1.12 -0.48 c-0.88 -0.16 -1.32 0.08 -2.64 0.08 s-1.4 0.4 -1.4 1.8 l0 1.2 c-0.04 0.96 0.12 7.68 0.12 8.76 c0 0.52 -0.04 0.56 -0.56 0.56 c-1.32 -0.04 -3.16 0.12 -4.52 0 c-1.96 -0.16 -1.52 0 -1.64 -1.8 l0 -0.24 c0 -2.56 0.32 -9.2 0.2 -9.6 c-0.2 -0.6 -0.44 -0.72 -0.96 -0.68 c-1.2 0.08 -2.44 -0.12 -3.64 -0.04 c-0.4 0.04 -0.52 0.16 -0.64 0.56 c-0.04 0.2 -0.08 0.4 -0.08 0.6 c0 1.24 0.08 2.92 0.12 4.16 l-0.12 23.72 c0 1.04 0.92 0.92 2.96 0.92 c1.88 0 2.36 0.44 2.36 -1.8 c0 -1.8 -0.12 -4.08 -0.08 -5.88 c0.04 -1.4 0 -2.76 0 -4.16 c0.04 -0.52 0.16 -0.68 0.64 -0.68 c1.76 -0.04 3.68 0 5.44 0 c0.56 0 0.68 0.08 0.68 0.72 z M29.382 29.68 c-0.12 -4.56 -0.08 -9.4 -0.04 -13.92 c0 -1.4 -0.08 -2.92 -0.08 -4.32 c0 -1.52 -0.6 -1.44 -1.4 -1.48 c-1.16 -0.04 -1.68 -0.04 -2.84 -0.04 c-0.76 -0.04 -1.08 0.16 -1.08 0.92 c0 3.92 -0.12 15 -0.08 16.6 s0.2 8.88 0.12 10.48 c-0.04 0.56 0 1.12 0.04 1.68 c0.04 0.2 0.16 0.4 0.48 0.4 c1.32 -0.08 2.56 -0.08 3.88 -0.12 c0.48 -0.04 0.88 -0.16 1.08 -0.68 c0.04 -0.28 -0.08 -7.6 -0.08 -9.52 z M52.084 33.28 c0.04 1.92 0 3.88 -0.12 5.8 c0 0.16 -0.12 0.32 -0.24 0.4 c-0.16 0.12 -0.36 0.2 -0.56 0.2 c-2.48 0.4 -5.48 0.6 -7.88 -0.2 c-5.4 -1.84 -9.08 -7.88 -9.08 -14.8 c0 -7.48 5.36 -14.76 13.16 -15.04 c1.04 -0.04 4.6 -0.2 4.48 1.56 c-0.08 1.28 0.04 2.32 0 3.64 c0 0.24 -0.16 0.4 -0.4 0.36 c-2.28 -0.28 -4.88 -1 -7.08 0.04 c-1.84 0.88 -3.12 2.76 -3.84 4.6 c-1.28 3.04 -1 6.56 -0.12 9.68 c0.68 2.48 2.16 5.4 5.12 5.48 c0.16 0.04 1.68 0.12 1.68 -0.04 l-0.12 -5.12 c-0.04 -0.24 -0.04 -0.48 -0.08 -0.72 s-0.2 -0.32 -0.44 -0.36 c-0.64 0 -0.64 -0.04 -1.28 -0.04 c-1.48 0 -1.16 -1 -1.2 -1.32 c-0.04 -0.6 0 -1.16 -0.04 -1.76 c-0.04 -0.56 0.12 -1 0.68 -1.08 l0.48 0 c2.08 -0.12 4.2 0.04 6.4 0.04 c0.32 0 0.48 0.4 0.48 0.76 c0.04 0.4 0.04 0.68 0.04 1.08 c0.12 1.96 -0.12 3.96 -0.08 5.92 c0.04 0.32 0.04 0.6 0.04 0.92 z M68.906 28.16 c0 1.8 -0.04 5.36 -0.08 5.36 l0 5.44 c0 0.24 -0.04 0.64 0.08 0.88 c0.12 0.28 0.48 0.2 0.72 0.16 c1.16 -0.12 2.32 0.04 3.48 0 c1.28 -0.04 0.88 -2 0.84 -2.8 c-0.16 -1.76 0.04 -15.16 0.04 -19.96 c0 -2.16 -0.08 -6.6 -0.2 -6.8 c-0.2 -0.36 -0.72 -0.44 -1.12 -0.48 c-0.88 -0.16 -1.32 0.08 -2.64 0.08 s-1.4 0.4 -1.4 1.8 l0 1.2 c-0.04 0.96 0.12 7.68 0.12 8.76 c0 0.52 -0.04 0.56 -0.56 0.56 c-1.32 -0.04 -3.16 0.12 -4.52 0 c-1.96 -0.16 -1.52 0 -1.64 -1.8 l0 -0.24 c0 -2.56 0.32 -9.2 0.2 -9.6 c-0.2 -0.6 -0.44 -0.72 -0.96 -0.68 c-1.2 0.08 -2.44 -0.12 -3.64 -0.04 c-0.4 0.04 -0.52 0.16 -0.64 0.56 c-0.04 0.2 -0.08 0.4 -0.08 0.6 c0 1.24 0.08 2.92 0.12 4.16 l-0.12 23.72 c0 1.04 0.92 0.92 2.96 0.92 c1.88 0 2.36 0.44 2.36 -1.8 c0 -1.8 -0.12 -4.08 -0.08 -5.88 c0.04 -1.4 0 -2.76 0 -4.16 c0.04 -0.52 0.16 -0.68 0.64 -0.68 c1.76 -0.04 3.68 0 5.44 0 c0.56 0 0.68 0.08 0.68 0.72 z"></path></g><g id="SvgjsG1909" featurekey="nameFeature-1" transform="matrix(1.6809677900709452,0,0,1.6809677900709452,168.638065421793,74.83276114128955)" fill="#ffffff"><path d="M6.96 37 c0 -1.04 0 -7.6 0.04 -8.12 c0.04 -0.12 0.12 -0.36 0.28 -0.36 s0.24 0.08 0.28 0.2 c1.6 3.12 3 6.24 4.44 9.28 c0.2 0.44 0.64 1.72 0.76 1.84 c0.16 0.24 0.44 0.16 0.68 0.16 l4.4 0.04 c0.52 0 0.64 -0.32 0.52 -0.76 c-0.32 -1.2 -2.6 -5.44 -3.12 -6.48 c-0.36 -0.8 -2.76 -5.44 -2.84 -5.8 c-0.08 -0.16 0.52 -0.44 0.6 -0.56 c1.92 -1.72 3.64 -3.48 4 -6.16 c0.4 -2.64 -0.2 -5.52 -1.92 -7.64 c-1.32 -1.56 -3.04 -2.48 -5.08 -2.6 c-1.24 -0.08 -2.44 0.04 -3.68 0 c-1.08 -0.04 -1.84 -0.04 -3.2 -0.04 c-0.64 0 -1.04 0.36 -1.08 1.04 l0 0.48 c-0.08 3.08 0 6.16 0.04 9.2 c0 4.64 -0.08 16.88 -0.08 18.64 c0 0.52 0.08 0.64 0.56 0.64 c0.28 0 0.6 0.04 0.88 0.04 c1.12 0 1.8 -0.04 2.96 -0.04 c0.88 0 0.56 -1.44 0.56 -3 z M6.96 21.4 l0.04 -4.04 c0.04 -0.6 -0.16 -1.8 0.4 -2.24 c0.76 -0.56 2.32 0 3 0.48 c2 1.36 1.84 4.72 0.76 6.6 c-0.52 0.88 -1.4 1.4 -2.4 1.68 c-0.6 0.16 -1.72 0.36 -1.76 -0.6 c0 -0.64 -0.04 -1.88 -0.04 -1.88 z M26.822000000000003 39.68 c0.12 0.04 0.48 0.04 0.84 0.04 c0.8 0 1.04 -2.88 1.12 -3.48 c0.04 -0.48 0.16 -0.52 0.56 -0.6 c2 -0.24 3 -0.08 5 -0.04 c0.44 0 0.68 0.2 0.8 0.56 l0.28 0.92 c0.24 0.68 0.44 1.52 0.68 2.2 c0.16 0.48 0.2 0.44 0.68 0.44 c0.64 0 2.96 0 3.64 -0.04 c0.92 0 0.28 -1.88 0.16 -2.2 c-0.36 -1.12 -0.44 -2.28 -0.8 -3.4 c-0.16 -0.48 -4.72 -22.12 -4.92 -23.32 c-0.28 -0.72 -0.04 -0.76 -0.68 -0.76 c-1.36 0 -2.8 0.08 -4.2 0 c-0.56 0 -0.52 0.16 -0.6 0.76 c-0.08 0.56 -1.52 6.92 -2.08 9.56 c-0.72 3.32 -1.36 6.52 -2.16 9.8 c-0.28 1.16 -2.2 9.52 -1.96 9.56 c0.12 0.08 0.32 0.04 0.48 0.04 c1 0 1.92 0 3.16 -0.04 z M32.062000000000005 30.6 l-0.84 0 c-1.12 0 -1.16 0 -0.88 -1.16 c0.2 -0.88 1.28 -5.64 1.52 -6.8 c0.04 -0.08 0.12 -0.16 0.16 -0.16 c0.08 0 0.16 0.08 0.2 0.12 c0.16 0.48 0.32 1.68 0.48 2.16 c0.36 1.52 0.6 2.8 0.96 4.44 c0.36 1.44 0.2 1.44 -0.52 1.44 c-0.36 0 -0.72 -0.04 -1.08 -0.04 z M62.684000000000005 10.920000000000002 c0.12 0.56 0.04 27.2 0.04 27.88 c0 1.2 -0.44 1.16 -1.24 1.16 c-1.2 0 -2.88 0.2 -3.24 -0.2 c-0.32 -0.28 -6.24 -14.56 -7.08 -16.36 c-0.08 -0.16 -0.28 -0.56 -0.44 -0.48 c-0.2 0.08 -0.12 0.36 -0.12 0.52 c-0.04 1.4 0.2 13.48 0.2 15.4 c0 0.96 -0.04 1.12 -0.84 1.12 l-2 0 c-0.52 0 -1.16 -0.04 -1.68 0.04 c-0.4 0 -0.6 -0.12 -0.64 -0.52 l0 -3.16 c0.08 -3.36 0 -23.28 0 -24.76 c0 -1.28 0.36 -1.52 1.64 -1.52 c0.88 -0.04 1.76 -0.04 2.64 -0.04 c0.28 0 0.44 0.04 0.6 0.4 c1.08 2.52 5.68 14.08 6.4 15.48 c0.12 0.28 0.56 1.4 0.8 1.52 l0.04 0 c0.16 -0.16 0.12 -0.96 0.12 -1.2 c0 -0.6 -0.32 -14.64 -0.32 -14.92 c0 -0.4 -0.12 -0.76 0.08 -1.04 c0.12 -0.16 0.64 -0.2 0.84 -0.24 c1.12 -0.08 2.44 0.04 3.56 0 c0.56 0 0.52 0.4 0.64 0.92 z M85.386 33.28 c0.04 1.92 0 3.88 -0.12 5.8 c0 0.16 -0.12 0.32 -0.24 0.4 c-0.16 0.12 -0.36 0.2 -0.56 0.2 c-2.48 0.4 -5.48 0.6 -7.88 -0.2 c-5.4 -1.84 -9.08 -7.88 -9.08 -14.8 c0 -7.48 5.36 -14.76 13.16 -15.04 c1.04 -0.04 4.6 -0.2 4.48 1.56 c-0.08 1.28 0.04 2.32 0 3.64 c0 0.24 -0.16 0.4 -0.4 0.36 c-2.28 -0.28 -4.88 -1 -7.08 0.04 c-1.84 0.88 -3.12 2.76 -3.84 4.6 c-1.28 3.04 -1 6.56 -0.12 9.68 c0.68 2.48 2.16 5.4 5.12 5.48 c0.16 0.04 1.68 0.12 1.68 -0.04 l-0.12 -5.12 c-0.04 -0.24 -0.04 -0.48 -0.08 -0.72 s-0.2 -0.32 -0.44 -0.36 c-0.64 0 -0.64 -0.04 -1.28 -0.04 c-1.48 0 -1.16 -1 -1.2 -1.32 c-0.04 -0.6 0 -1.16 -0.04 -1.76 c-0.04 -0.56 0.12 -1 0.68 -1.08 l0.48 0 c2.08 -0.12 4.2 0.04 6.4 0.04 c0.32 0 0.48 0.4 0.48 0.76 c0.04 0.4 0.04 0.68 0.04 1.08 c0.12 1.96 -0.12 3.96 -0.08 5.92 c0.04 0.32 0.04 0.6 0.04 0.92 z M90.248 31.8 l-0.04 0 c0 1 -0.04 2.04 0 3.08 c0.04 1.28 0.12 2.56 0.2 3.84 c0 0.44 0.12 0.56 0.52 0.64 c0.84 0.2 1.64 0.24 2.48 0.24 c2.16 -0.08 4.32 0.08 6.48 0 c0.88 -0.04 1.28 0.04 2.16 -0.12 c0.8 -0.16 1.08 -0.6 1.08 -1.8 c-0.08 -0.76 -0.04 -1.08 -0.04 -2 c0 -1.32 -0.92 -1.76 -1.72 -1.72 c-0.56 0.04 -3.24 -0.04 -4.32 -0.04 c-1.8 0.04 -1.52 0.28 -1.52 -1.6 c0 -1.52 0.04 -3.48 0.04 -5.04 c0 -0.84 0.08 -1.12 0.88 -1.12 l5 0 c0.8 0.12 1.36 -0.44 1.36 -1.28 s0.08 -0.88 0.08 -1.72 l-0.12 -1.2 c-0.08 -0.68 -0.32 -0.92 -1 -0.92 c-0.44 0 -0.88 0.04 -1.32 0.08 c-1.72 0.12 -2.52 -0.12 -4.2 0 c-0.56 0 -0.64 -0.08 -0.68 -0.6 c-0.16 -1.56 0 -3.28 0.16 -4.84 c0.04 -0.64 0.2 -0.76 0.8 -0.8 l5.64 -0.04 c0.76 -0.08 1 -0.04 0.96 -0.8 c-0.08 -1.16 0.04 -2.36 -0.08 -3.52 c-0.08 -0.64 -0.28 -0.76 -1 -0.76 c-1.2 0.04 -1.48 0.04 -2.68 0.12 c-1.2 0.04 -6 0.04 -7.16 0.04 c-1.68 0 -1.8 -0.12 -1.84 1.92 c-0.08 1.6 -0.04 3.24 -0.04 4.88 c0 2.8 -0.16 12.84 -0.08 15.08 z"></path></g></svg>