<?xml version="1.0" encoding="UTF-8" standalone="no" ?>
<!DOCTYPE svg PUBLIC "-//W3C//DTD SVG 1.1//EN" "http://www.w3.org/Graphics/SVG/1.1/DTD/svg11.dtd">
<svg xmlns="http://www.w3.org/2000/svg" xmlns:xlink="http://www.w3.org/1999/xlink" version="1.1" width="1080" height="1080" viewBox="0 0 1080 1080" xml:space="preserve">
<desc>Created with Fabric.js 4.2.0</desc>
<defs>
</defs>
<rect x="0" y="0" width="100%" height="100%" fill="transparent"></rect>
<g transform="matrix(1 0 0 1 540 540)" id="b0331ce7-8bae-4e78-8139-3152c3a83689"  >
</g>
<g transform="matrix(1 0 0 1 540 540)" id="6d0d3859-2236-4964-b161-16c9015c9818"  >
<rect style="stroke: none; stroke-width: 1; stroke-dasharray: none; stroke-linecap: butt; stroke-dashoffset: 0; stroke-linejoin: miter; stroke-miterlimit: 4; fill: rgb(255,255,255); fill-opacity: 0; fill-rule: nonzero; opacity: 1;" vector-effect="non-scaling-stroke"  x="-540" y="-540" rx="0" ry="0" width="1080" height="1080" />
</g>
<g transform="matrix(2.05 0 0 2.05 466.93 393.19)"  >
<g style="" vector-effect="non-scaling-stroke"   >
		<g transform="matrix(5.76 0 0 5.76 0 0)"  >
<path style="stroke: none; stroke-width: 1; stroke-dasharray: none; stroke-linecap: butt; stroke-dashoffset: 0; stroke-linejoin: miter; stroke-miterlimit: 4; fill: rgb(255,255,255); fill-rule: evenodd; opacity: 1;" vector-effect="non-scaling-stroke"  transform=" translate(-228.15, -181.18)" d="M 235 176.964 C 235.264 182.564 234.416 186.11599999999999 232.664 189.384 C 231.63842701859153 191.3577312222881 231.15530072239284 193.56837911760857 231.26399999999998 195.79 C 231.302 197.671 230.48899999999998 198.159 228.78799999999998 197.29 C 227.99018570669662 196.98473764664004 227.51973187211095 196.15777783410923 227.665 195.316 C 227.718 194.961 227.738 194.602 227.786 194.245 C 228.11878671378673 192.58531029692875 227.6975010686072 190.86353418184723 226.636 189.54500000000002 C 226.047 188.84500000000003 225.572 188.04500000000002 224.964 187.36900000000003 C 222.34778035792868 184.41788946521754 221.02433654896646 180.5408547031433 221.29 176.60600000000002 C 221.404 173.47600000000003 221.644 170.34600000000003 221.96099999999998 167.228 C 222.218 164.69500000000002 223.272 164.08200000000002 225.61599999999999 165.175 C 231.4 167.869 234.708 172.341 235 176.964 Z M 234.723 178.883 C 234.377 172.547 231.10600000000002 168.20100000000002 225.491 165.525 C 223.411 164.53300000000002 222.614 165.006 222.32500000000002 167.28 C 222.00192499416715 169.47847119229388 221.80161444781035 171.6932381331789 221.72500000000002 173.91400000000002 C 221.68863246533917 176.29652781607794 221.8152612881676 178.6787534275996 222.104 181.04399999999998 C 222.44400000000002 183.825 224.216 185.944 225.959 187.974 C 227.84455327697884 189.9022169977443 228.6386609273067 192.64686329745896 228.074 195.284 C 228.01217360852775 195.78310406186606 228.19634279123343 196.28118104181505 228.568 196.62 C 229.2007856274562 196.90887218022124 229.87099285727507 197.10747703486368 230.55900000000003 197.21 C 230.71288778841213 196.71166307921962 230.81607755087808 196.1990645838532 230.86700000000002 195.68 C 230.7841953723402 193.4564896569496 231.27383617491867 191.2489740554513 232.28900000000002 189.269 C 234.03525833759267 186.09471320589847 234.87877204696795 182.5027765984481 234.728 178.883 Z" stroke-linecap="round" />
</g>
		<g transform="matrix(5.76 0 0 5.76 31.16 -76.64)"  >
<path style="stroke: none; stroke-width: 1; stroke-dasharray: none; stroke-linecap: butt; stroke-dashoffset: 0; stroke-linejoin: miter; stroke-miterlimit: 4; fill: rgb(255,255,255); fill-rule: evenodd; opacity: 1;" vector-effect="non-scaling-stroke"  transform=" translate(-263.39, -171.42)" d="M 263.472 171.518 C 263.305 171.456 263.272 171.418 263.344 171.347 C 263.3673851866489 171.32668936131185 263.3970433898562 171.31503792433756 263.428 171.31400000000002 C 263.437 171.31400000000002 263.453 171.35800000000003 263.45799999999997 171.383 C 263.46299999999997 171.408 263.467 171.463 263.472 171.518 Z" stroke-linecap="round" />
</g>
		<g transform="matrix(5.76 0 0 5.76 21.26 -12.57)"  >
<path style="stroke: none; stroke-width: 1; stroke-dasharray: none; stroke-linecap: butt; stroke-dashoffset: 0; stroke-linejoin: miter; stroke-miterlimit: 4; fill: rgb(255,255,255); fill-rule: evenodd; opacity: 1;" vector-effect="non-scaling-stroke"  transform=" translate(-253.57, -194.84)" d="M 251.836 185.7 C 254.28610180359226 188.88475417822013 255.50696089996183 192.84553491046654 255.275 196.857 C 255.22509834365434 197.34485541267634 255.10345383949382 197.82267232929578 254.91400000000002 198.275 C 254.17800000000003 200.184 253.41400000000002 202.082 252.567 203.975 C 252.97400000000002 202.653 253.36700000000002 201.328 253.792 200.012 C 254.26608954930452 198.94609985144402 254.6280365781099 197.83378301014307 254.872 196.693 C 255.22000000000003 193.05800000000002 254.04500000000002 189.74900000000002 252.322 186.60600000000002 C 252.159 186.3 252 186 251.836 185.7 Z" stroke-linecap="round" />
</g>
		<g transform="matrix(5.76 0 0 5.76 -8.29 -10.07)"  >
<path style="stroke: none; stroke-width: 1; stroke-dasharray: none; stroke-linecap: butt; stroke-dashoffset: 0; stroke-linejoin: miter; stroke-miterlimit: 4; fill: rgb(255,255,255); fill-rule: evenodd; opacity: 1;" vector-effect="non-scaling-stroke"  transform=" translate(-234.87, -197.14)" d="M 232.9 188.309 C 234.889 192.85399999999998 236.959 202.091 236.839 205.96699999999998 C 236.5 199.86 234.127 194.216 232.9 188.309 Z" stroke-linecap="round" />
</g>
		<g transform="matrix(5.76 0 0 5.76 8.17 -31.18)"  >
<path style="stroke: none; stroke-width: 1; stroke-dasharray: none; stroke-linecap: butt; stroke-dashoffset: 0; stroke-linejoin: miter; stroke-miterlimit: 4; fill: rgb(255,255,255); fill-rule: evenodd; opacity: 1;" vector-effect="non-scaling-stroke"  transform=" translate(-243.73, -186.77)" d="M 244.99 194.606 C 245.94972278429896 193.0714733653463 246.08535011261506 191.1607016128268 245.352 189.506 C 244.066 186.062 242.715 182.641 241.284 178.935 C 241.5674961116569 179.35329567031656 241.82176762989772 179.79066941194233 242.045 180.244 C 243.38299999999998 183.71 244.77599999999998 187.157 245.987 190.668 C 246.45573121464074 192.0625983151059 246.06587870704158 193.60245706628496 244.99 194.606 Z" stroke-linecap="round" />
</g>
		<g transform="matrix(5.76 0 0 5.76 -15.99 -10.12)"  >
<path style="stroke: none; stroke-width: 1; stroke-dasharray: none; stroke-linecap: butt; stroke-dashoffset: 0; stroke-linejoin: miter; stroke-miterlimit: 4; fill: rgb(255,255,255); fill-rule: evenodd; opacity: 1;" vector-effect="non-scaling-stroke"  transform=" translate(-229.3, -198.92)" d="M 231.5 207.039 C 230.47 205.588 229.432 204.13899999999998 228.413 202.684 C 227.66797006217976 201.64227014158124 227.25020027611563 200.40219015994754 227.21300000000002 199.12199999999999 C 227.12400000000002 196.349 226.98000000000002 193.577 226.98100000000002 190.796 C 227.15800000000002 193.057 227.46800000000002 195.31799999999998 227.47600000000003 197.57999999999998 C 227.45319232102833 199.98057058844353 228.29517448219275 202.30915531746493 229.848 204.14 C 230.49990234951468 205.04704111448194 231.08958666238854 205.9972179902968 231.613 206.98399999999998 Z" stroke-linecap="round" />
</g>
		<g transform="matrix(5.76 0 0 5.76 -19.67 -33.63)"  >
<path style="stroke: none; stroke-width: 1; stroke-dasharray: none; stroke-linecap: butt; stroke-dashoffset: 0; stroke-linejoin: miter; stroke-miterlimit: 4; fill: rgb(255,255,255); fill-rule: evenodd; opacity: 1;" vector-effect="non-scaling-stroke"  transform=" translate(-229.17, -188.82)" d="M 227.967 182.4 Q 229.30900000000003 188.785 230.651 195.169 L 230.329 195.239 Q 229.00400000000002 188.85 227.68 182.46200000000002 Z" stroke-linecap="round" />
</g>
		<g transform="matrix(5.76 0 0 5.76 -5.16 -37.27)"  >
<path style="stroke: none; stroke-width: 1; stroke-dasharray: none; stroke-linecap: butt; stroke-dashoffset: 0; stroke-linejoin: miter; stroke-miterlimit: 4; fill: rgb(255,255,255); fill-rule: evenodd; opacity: 1;" vector-effect="non-scaling-stroke"  transform=" translate(-236.58, -189.01)" d="M 238.614 194.472 C 238.554 190.351 236.519 186.959 234.514 183.556 C 237.568 187.5 238.874 190.659 238.614 194.472 Z" stroke-linecap="round" />
</g>
</g>
</g>
<g transform="matrix(11.79 0 0 11.79 585.56 410.61)"  >
<path style="stroke: none; stroke-width: 1; stroke-dasharray: none; stroke-linecap: butt; stroke-dashoffset: 0; stroke-linejoin: miter; stroke-miterlimit: 4; fill: rgb(255,255,255); fill-rule: evenodd; opacity: 1;" vector-effect="non-scaling-stroke"  transform=" translate(-259.32, -189.36)" d="M 266.655 178.452 C 266.09099999999995 177.52 265.67499999999995 176.46099999999998 265.13199999999995 175.509 C 264.81488950673565 174.98480190679223 264.4683341719194 174.4789913747628 264.09399999999994 173.994 L 263.8349999999999 173.94 C 263.80236578275816 173.93343106166455 263.77656972166824 173.90841669939556 263.76899999999995 173.876 C 263.3231518387228 173.93249176610573 262.8875164734357 174.05166867438365 262.47499999999997 174.23000000000002 C 262.45872953774824 174.23513941900052 262.4412704622517 174.23513941900052 262.42499999999995 174.23000000000002 C 259.34708283801024 175.86981713117953 256.8958345689581 178.47888164238887 255.45099999999996 181.65300000000002 C 255.52174849314406 181.80890310955775 255.57928386459116 181.9704704607726 255.62299999999996 182.13600000000002 C 256.93168491031787 179.21577718185046 259.0749318461891 176.74791183832212 261.78299999999996 175.04300000000003 C 262.0769404582379 174.86815893459894 262.3811595545177 174.71120726033826 262.69399999999996 174.57300000000004 C 263.804 174.09700000000004 264.19999999999993 174.29900000000004 264.739 175.44700000000003 C 265.287 176.61500000000004 265.91499999999996 177.72800000000004 266.452 178.90400000000002 C 266.81765720735467 179.5381768703535 267.04624418348703 180.2419931038698 267.123 180.97000000000003 C 267.109 183.44200000000004 266.944 185.92400000000004 266.829 188.59100000000004 C 265.512 190.58000000000004 265.604 193.49100000000004 263.709 195.38500000000005 C 263.12107614561216 196.12330468387182 262.72189714935956 196.99374142892486 262.546 197.92100000000005 C 262.31400779127597 198.81505428880052 261.78244360736346 199.60251756523405 261.04 200.15200000000004 C 260.31800000000004 200.75200000000004 259.701 201.54000000000005 258.978 202.13600000000005 C 258.4865240719135 202.54020922542261 257.9243537348903 202.84977588266153 257.32 203.04900000000006 C 255.903 203.50600000000006 254.46099999999998 203.82600000000005 253.043 204.27600000000007 C 252.51428218005884 204.53276252830403 251.87760651344715 204.37496122296403 251.53 203.90100000000007 C 251.3891790718073 203.9598449557392 251.23489796511438 203.9788706527529 251.084 203.95600000000007 C 251.2392261039037 204.31869458201595 251.534444196546 204.6032612399342 251.9025955424847 204.745060709751 C 252.2707468884234 204.8868601795678 252.6805795090599 204.87385525418097 253.03900000000002 204.70900000000006 C 254.555 204.24000000000007 256.091 203.88300000000007 257.603 203.39800000000005 C 258.17616484634465 203.20072789058594 258.70609971690135 202.89519209077747 259.164 202.49800000000005 C 259.909 201.86600000000004 260.556 201.06100000000004 261.306 200.44100000000006 C 262.08618615246144 199.8172394077366 262.6493261848677 198.96290452948696 262.915 198 C 263.21283753368084 196.99439638884004 263.6809582954615 196.04733126385025 264.29900000000004 195.2 C 265.11114431919566 194.25406824383725 265.6583529234647 193.10996753024574 265.88500000000005 191.884 C 265.96644924651406 191.43331775168295 266.1200907634018 190.99873174677208 266.34000000000003 190.59699999999998 C 266.8821095189801 189.57106607805613 267.202696289323 188.44270966639223 267.281 187.28499999999997 C 267.24378368929695 187.24925545835285 267.22359322977184 187.19932562694956 267.22550309100177 187.14775937374077 C 267.22741295223176 187.09619312053198 267.25124153501264 187.04789362402892 267.291 187.01499999999996 C 267.30066678595557 186.73629144229633 267.2963279860394 186.45727323230173 267.278 186.17899999999995 C 267.25529018873635 185.02953351706404 267.32888066632125 183.88018405805593 267.49800000000005 182.74299999999994 C 267.7066357417143 181.2585899427068 267.40970266796234 179.7471548069185 266.655 178.452 Z" stroke-linecap="round" />
</g>
<g transform="matrix(11.79 0 0 11.79 583.75 413.88)"  >
<path style="stroke: none; stroke-width: 1; stroke-dasharray: none; stroke-linecap: butt; stroke-dashoffset: 0; stroke-linejoin: miter; stroke-miterlimit: 4; fill: rgb(255,255,255); fill-rule: evenodd; opacity: 1;" vector-effect="non-scaling-stroke"  transform=" translate(-261.93, -194.2)" d="M 268.42 186.469 C 267.52000000000004 184.982 267.714 182.975 266.558 181.569 C 266.016 180.91199999999998 265.553 180.423 264.89 180.72299999999998 C 263.90084548288763 181.1593629358317 262.9932091201126 181.76095946689608 262.20599999999996 182.50199999999998 C 260.7655061187667 183.97601021207987 259.58844842286084 185.68612622084424 258.72599999999994 187.558 C 258.75699999999995 187.765 258.7799999999999 187.97299999999998 258.79699999999997 188.182 C 259.84018088305146 185.93422415896595 261.2813865291054 183.8937019196187 263.051 182.159 C 263.58816724089905 181.66588575260434 264.2371202814183 181.31069463841217 264.942 181.124 C 265.317 181.012 265.767 181.332 266.38100000000003 181.519 C 264.6342078584212 182.6998460285685 262.9803759699733 184.01268165135698 261.434 185.446 C 260.334 186.62199999999999 258.88300000000004 187.812 258.98100000000005 189.935 C 258.9812982220331 189.98259140664493 258.97524480615846 190.03000983099653 258.9630000000001 190.076 C 258.9920000000001 190.405 259.01400000000007 190.73999999999998 259.02400000000006 191.076 C 259.1844535398809 190.97476442423772 259.3571857640555 190.89444730054564 259.53800000000007 190.837 C 259.61800000000005 190.81099999999998 259.8020000000001 191.40099999999998 259.95000000000005 191.69799999999998 C 260.26500000000004 192.331 260.58900000000006 192.95899999999997 260.898 193.56699999999998 L 258.728 194.39 C 258.718 194.47699999999998 258.706 194.564 258.696 194.65099999999998 C 259.0542526972194 194.45664132144785 259.4510679947063 194.34394850890854 259.858 194.32099999999997 C 260.157569380699 194.29922758947345 260.4552775937417 194.25679330994885 260.749 194.19399999999996 C 262.60600000000005 193.70899999999995 262.749 193.78299999999996 262.87100000000004 195.95399999999995 C 262.8445087459979 196.4528600815004 262.6025597340462 196.91559212849103 262.208 197.22199999999995 C 261.5630913653843 197.49709004162165 260.8891427546008 197.6983688701284 260.199 197.82199999999995 C 259.738 197.59699999999995 259.491 197.49799999999993 259.26300000000003 197.36099999999993 C 258.9159742874385 197.17172396643733 258.61191954908554 196.91261348952068 258.37000000000006 196.59999999999994 C 258.33600000000007 196.73499999999993 258.29800000000006 196.86999999999995 258.25700000000006 197.00599999999994 C 258.5764845336035 197.41087283348745 258.9878446995567 197.73379056376072 259.45700000000005 197.94799999999995 C 259.809 198.11599999999996 259.987 198.71499999999995 260.2900000000001 199.18799999999996 L 257.42500000000007 200.17099999999996 C 257.3062973071651 200.08245216128677 257.1949356991502 199.9844673230034 257.09200000000004 199.87799999999996 C 257.01800000000003 200.02199999999996 256.94800000000004 200.16699999999994 256.869 200.31099999999995 L 256.869 200.31099999999995 C 256.9304406800895 200.3722155919843 257.00051809347167 200.42409983073836 257.07700000000006 200.46499999999995 C 255.88300000000007 201.86499999999995 255.88300000000007 201.86499999999995 256.92900000000003 203.38699999999994 C 256.5281234701904 203.80688768663396 256.0719318157946 204.1702261724359 255.57300000000004 204.46699999999996 C 255.50757823384285 204.49260699926896 255.44081310789093 204.51463949083308 255.37300000000005 204.53299999999996 C 255.37300000000005 204.55699999999996 255.36600000000004 204.57999999999996 255.36400000000006 204.60399999999996 C 255.32300000000006 205.03999999999996 255.29000000000005 205.47799999999995 255.25600000000006 205.91599999999997 C 255.53373959987778 206.2053911351587 255.86304238450836 206.44041361687755 256.22700000000003 206.60899999999998 C 256.82117155031347 206.78179843956008 257.4266287897237 206.913114496452 258.03900000000004 207.00199999999998 C 258.03200000000004 207.12499999999997 258.02500000000003 207.248 258.01900000000006 207.37199999999999 C 257.41100000000006 207.37199999999999 256.8020000000001 207.392 256.19700000000006 207.363 C 255.93800000000007 207.351 255.69000000000005 207.207 255.43100000000007 207.175 C 255.33100000000007 207.162 255.24000000000007 207.15 255.15400000000008 207.137 C 255.15400000000008 207.15 255.15400000000008 207.163 255.15400000000008 207.176 C 255.14100000000008 207.309 255.12200000000007 207.44099999999997 255.09900000000007 207.56799999999998 C 255.2414914404073 207.57614263817726 255.38339410053652 207.59250318016862 255.5240000000001 207.617 C 255.62400000000008 207.637 255.7090000000001 207.71699999999998 255.8050000000001 207.71699999999998 C 256.5227090311431 207.8020678788657 257.24862901854976 207.7896216140214 257.9630000000001 207.67999999999998 C 260.22100000000006 207.05899999999997 261.7360000000001 204.99499999999998 263.5060000000001 203.43399999999997 C 263.6893784638189 203.24126527317387 263.82321285618116 203.00688350398562 263.8960000000001 202.75099999999998 C 264.4175182192701 201.04557639206874 265.23497503759756 199.44518888190223 266.3110000000001 198.02299999999997 C 266.56968639203535 197.59464430303112 266.7004945826114 197.1012510749166 266.6880000000001 196.60099999999997 C 266.84205141470864 194.45092305751837 267.3288441553029 192.3377770235043 268.1310000000001 190.33699999999996 C 268.566 189.1 269.138 187.65 268.42 186.469 Z M 263.64 183.9 C 264.478 183.40800000000002 265.305 182.886 266.161 182.449 C 266.4147817391111 182.38652553425462 266.68251265681073 182.46607986408537 266.861 182.657 C 267.63 183.52300000000002 267.113 186.428 266.061 187.13400000000001 C 266.046 185.365 265.37399999999997 184.282 263.64 184.33900000000003 C 263.64 184.194 263.64 184.048 263.64 183.9 Z M 262.866 185.043 C 263.6343877115279 184.58277806016972 264.618479522135 184.71200223732015 265.24199999999996 185.35500000000002 C 265.8647733651762 186.331974448458 265.80386307732596 187.59546219577302 265.09 188.508 C 264.48999999999995 187.091 264.34799999999996 187.042 262.37399999999997 187.602 C 262.0240630229593 186.72660534680185 262.21668644523527 185.72754228238074 262.867 185.045 Z M 259.707 190.315 C 258.951 189.262 260.162 186.629 261.897 185.653 C 261.904 186.399 261.911 187.128 261.917 187.778 C 261.167 188.642 260.437 189.481 259.708 190.317 Z M 262.776 193.368 C 261.885836705541 193.6174591275834 260.94928857880535 193.16462267070025 260.592 192.31199999999998 C 260.07789260727935 191.5882670708841 260.0730922437207 190.61979372291515 260.58 189.891 C 261.22959816667793 188.84925375736736 262.23976022460687 188.082911646472 263.418 187.738 C 264.259 187.515 264.718 187.976 264.61 188.938 C 264.51 189.849 264.349 190.755 264.216 191.664 C 264.1760139154817 192.49213657501141 263.58654371731643 193.19098032627608 262.777 193.37 Z M 257.208 206.298 C 256.538 206.13 255.56200000000004 206.53300000000002 255.43300000000002 205.209 L 257.06100000000004 203.809 L 258.829 204.409 L 258.819 204.362 C 258.819 204.356 258.819 204.351 258.819 204.345 C 258.779 204.275 258.80400000000003 204.302 258.819 204.345 C 258.829 204.364 258.843 204.386 258.863 204.419 L 258.834 204.40900000000002 C 259.313 206.577 259.136 206.783 257.209 206.3 Z M 257.254 203.046 C 256.283 201.74599999999998 256.31800000000004 201.446 257.771 200.625 C 258.5232155257647 200.25717826593558 259.30008763381494 199.94208562168123 260.096 199.682 C 260.476 200.016 260.829 200.17399999999998 260.918 200.457 C 260.98 200.65 260.693 201.036 260.524 201.30599999999998 C 260.206 201.80599999999998 259.838 202.277 259.531 202.78799999999998 C 258.789 204.028 258.056 204.12 257.255 203.048 Z M 259.772 206.292 C 259.48401238982626 205.50166226869348 259.31745488142815 204.67224633618468 259.27799999999996 203.832 C 259.42071857521796 203.20807073084237 259.85068657184155 202.68869610161624 260.43699999999995 202.432 C 261.38899999999995 202.26 262.01399999999995 203.059 262.52899999999994 203.897 Z M 263.034 203.518 L 260.758 201.718 C 261.38899999999995 200.94899999999998 261.717 200.118 260.553 199.445 C 260.375 199.345 260.459 198.686 260.42 198.269 C 261.03000000000003 198.01600000000002 261.32 198.094 261.466 198.808 C 261.6788641110247 200.24188638426543 262.5507273135482 201.49343194917816 263.822 202.19 C 263.5 202.732 263.261 203.142 263.036 203.52 Z M 263.959 201.518 C 262.80400000000003 201.358 262.00600000000003 200.118 261.745 198.01 L 262.274 197.72799999999998 L 264.78 199.49299999999997 C 264.555 200.058 264.257 200.79 263.96 201.523 Z M 266.259 196.906 C 265.959 197.584 265.487 198.683 265.107 198.698 C 264.42 198.728 263.737 198.108 263.07800000000003 197.708 C 262.978 197.644 262.949 197.301 262.978 197.1 C 263.07800000000003 196.46099999999998 263.22700000000003 195.827 263.406 194.948 L 266.434 195.566 C 266.4437169163238 196.02039575651673 266.384029785051 196.47361329567323 266.257 196.91 Z M 267.35900000000004 191.346 C 267.208 192.203 266.85900000000004 193.024 266.63800000000003 193.874 C 266.377 194.88299999999998 265.838 195.284 265.055 194.845 C 264.56978689544337 194.50119192931126 264.1243746815818 194.10441282614994 263.72700000000003 193.662 L 264.04800000000006 193.469 C 264.26200000000006 192.54 264.45500000000004 191.60399999999998 264.69800000000004 190.683 C 264.7912224336069 190.21763207512655 264.9601304075397 189.77070157610035 265.19800000000004 189.35999999999999 C 265.8608046990399 189.4340867333683 266.49761821041375 189.65993139618763 267.059 190.01999999999998 C 267.34225516291013 190.40111622096737 267.45155270321294 190.88405884091003 267.36 191.35 Z M 268.15900000000005 188.96200000000002 C 268.09850744659775 189.30954908729993 267.9876755602021 189.64642412193723 267.83000000000004 189.96200000000002 L 265.593 188.56900000000002 C 265.793 188.324 266.04400000000004 188.05900000000003 266.25800000000004 187.764 C 266.74600000000004 187.092 267.38500000000005 186.401 268.021 186.973 C 268.342 187.262 268.194 188.278 268.164 188.965 Z" stroke-linecap="round" />
</g>
<g transform="matrix(11.79 0 0 11.79 697.59 221.05)"  >
<path style="stroke: rgb(3,5,4); stroke-width: 1; stroke-dasharray: none; stroke-linecap: butt; stroke-dashoffset: 0; stroke-linejoin: miter; stroke-miterlimit: 10; fill: rgb(255,255,255); fill-rule: nonzero; opacity: 1;" vector-effect="non-scaling-stroke"  transform=" translate(-375.5, -165.5)" d="M 375.5 165.5" stroke-linecap="round" />
</g>
<g transform="matrix(11.79 0 0 11.79 697.59 221.05)"  >
<path style="stroke: rgb(3,5,4); stroke-width: 1; stroke-dasharray: none; stroke-linecap: butt; stroke-dashoffset: 0; stroke-linejoin: miter; stroke-miterlimit: 10; fill: rgb(255,255,255); fill-rule: nonzero; opacity: 1;" vector-effect="non-scaling-stroke"  transform=" translate(-375.5, -165.5)" d="M 375.5 165.5" stroke-linecap="round" />
</g>
</svg>